<svg width="24" height="24" viewBox="0 0 24 24" fill="none" xmlns="http://www.w3.org/2000/svg">
<path d="M7.984 0.986009C7.438 0.995009 7 1.43901 7 1.98601C7 1.99101 7 1.99601 7 2.00001V1.99901V2.99901H5C3.355 2.99901 2 4.35401 2 5.99901V19.999C2 21.644 3.355 22.999 5 22.999H19C20.645 22.999 22 21.644 22 19.999V5.99901C22 4.35401 20.645 2.99901 19 2.99901H17V1.99901C17 1.99501 17 1.99001 17 1.98501C17 1.43301 16.552 0.985009 16 0.985009C15.995 0.985009 15.989 0.985009 15.984 0.985009H15.985C15.439 0.994009 15.001 1.43801 15.001 1.98501C15.001 1.99001 15.001 1.99501 15.001 1.99901V1.99801V2.99801H9.001V1.99801C9.001 1.99401 9.001 1.98901 9.001 1.98401C9.001 1.43201 8.553 0.984009 8.001 0.984009C7.996 0.984009 7.99 0.984009 7.985 0.984009H7.986L7.984 0.986009ZM5 5.00001H7V6.00001C7 6.00401 7 6.00901 7 6.01401C7 6.56601 7.448 7.01401 8 7.01401C8.552 7.01401 9 6.56601 9 6.01401C9 6.00901 9 6.00401 9 5.99901V6.00001V5.00001H15V6.00001C15 6.00401 15 6.00901 15 6.01401C15 6.56601 15.448 7.01401 16 7.01401C16.552 7.01401 17 6.56601 17 6.01401C17 6.00901 17 6.00401 17 5.99901V6.00001V5.00001H19C19.571 5.00001 20 5.42901 20 6.00001V9.00001H4V6.00001C4 5.42901 4.429 5.00001 5 5.00001ZM4 11H20V20C20 20.571 19.571 21 19 21H5C4.429 21 4 20.571 4 20V11Z" fill="#8A94A6"/>
</svg>
