<svg width="24" height="24" viewBox="0 0 24 24" fill="none" xmlns="http://www.w3.org/2000/svg">
<path d="M15 2C14.996 2 14.991 2 14.986 2C14.434 2 13.986 2.448 13.986 3C13.986 3.552 14.434 4 14.986 4C14.991 4 14.996 4 15.001 4H18.586L13.293 9.293C12.311 10.236 13.765 11.689 14.707 10.707L20 5.414V9C20 9.004 20 9.009 20 9.014C20 9.566 20.448 10.014 21 10.014C21.552 10.014 22 9.566 22 9.014C22 9.009 22 9.004 22 8.999V9V3C22 2.448 21.552 2 21 2H15ZM9.97998 12.99C9.71998 12.998 9.47398 13.106 9.29298 13.293L3.99998 18.586V15C3.99998 14.996 3.99998 14.991 3.99998 14.986C3.99998 14.434 3.55198 13.986 2.99998 13.986C2.99498 13.986 2.98898 13.986 2.98398 13.986H2.98498C2.43898 13.995 2.00098 14.439 2.00098 14.986C2.00098 14.991 2.00098 14.996 2.00098 15V14.999V20.999C2.00098 21.551 2.44898 21.999 3.00098 21.999H9.00098C9.00498 21.999 9.00998 21.999 9.01498 21.999C9.56698 21.999 10.015 21.551 10.015 20.999C10.015 20.447 9.56698 19.999 9.01498 19.999C9.00998 19.999 9.00498 19.999 8.99998 19.999H5.41498L10.708 14.706C11.362 14.07 10.893 12.962 9.98098 12.989L9.97998 12.99Z" fill="#4E5D78"/>
</svg>
