<svg width="24" height="24" viewBox="0 0 24 24" fill="none" xmlns="http://www.w3.org/2000/svg">
<path d="M12.438 1.01001C12.09 0.985006 11.741 0.991006 11.397 1.02601C8.64498 1.30401 5.99698 3.50501 6.00098 7.00301V10.001H5.00098C3.35598 10.001 2.00098 11.356 2.00098 13.001V20.001C2.00098 21.646 3.35598 23.001 5.00098 23.001H19.001C20.646 23.001 22.001 21.646 22.001 20.001V13.001C22.001 11.356 20.646 10.001 19.001 10.001H8.00098V6.99901C7.99798 4.46301 9.69898 3.20801 11.599 3.01701C13.499 2.82601 15.417 3.71601 15.921 6.20101C16.187 7.50701 18.148 7.10901 17.882 5.80301C17.273 2.80401 14.873 1.18401 12.439 1.01201L12.438 1.01001ZM4.99998 12H19C19.571 12 20 12.429 20 13V20C20 20.571 19.571 21 19 21H4.99998C4.42898 21 3.99998 20.571 3.99998 20V13C3.99998 12.429 4.42898 12 4.99998 12Z" fill="#8A94A6"/>
</svg>
